<?xml version="1.0" encoding="UTF-8" standalone="no"?>
<!DOCTYPE svg PUBLIC "-//W3C//DTD SVG 1.1//EN"
 "http://www.w3.org/Graphics/SVG/1.1/DTD/svg11.dtd">
<!-- Generated by graphviz version 2.44.0 (20200408.0750)
 -->
<!-- Title: ER Pages: 1 -->
<svg width="203pt" height="223pt"
 viewBox="0.00 0.00 202.56 223.11" xmlns="http://www.w3.org/2000/svg" xmlns:xlink="http://www.w3.org/1999/xlink">
<g id="graph0" class="graph" transform="scale(1 1) rotate(0) translate(4 219.11)">
<title>ER</title>
<polygon fill="transparent" stroke="transparent" points="-4,4 -4,-219.11 198.56,-219.11 198.56,4 -4,4"/>
<!-- A -->
<g id="node1" class="node">
<title>A</title>
<ellipse fill="#fb08ff" fill-opacity="0.133333" stroke="#fb08ff" stroke-opacity="0.133333" cx="21.21" cy="-59.22" rx="18" ry="18"/>
<text text-anchor="middle" x="21.21" y="-55.52" font-family="Times,serif" font-size="14.00">A</text>
</g>
<!-- B -->
<g id="node2" class="node">
<title>B</title>
<ellipse fill="#74ff21" fill-opacity="0.133333" stroke="#74ff21" stroke-opacity="0.133333" cx="176.56" cy="-65.84" rx="18" ry="18"/>
<text text-anchor="middle" x="176.56" y="-62.14" font-family="Times,serif" font-size="14.00">B</text>
</g>
<!-- A&#45;&#45;B -->
<g id="edge1" class="edge">
<title>A&#45;&#45;B</title>
<path fill="none" stroke="black" d="M39.33,-59.99C69.27,-61.27 128.69,-63.8 158.55,-65.07"/>
</g>
<!-- C -->
<g id="node3" class="node">
<title>C</title>
<ellipse fill="#21fffe" fill-opacity="0.133333" stroke="#21fffe" stroke-opacity="0.133333" cx="100.87" cy="-18" rx="18" ry="18"/>
<text text-anchor="middle" x="100.87" y="-14.3" font-family="Times,serif" font-size="14.00">C</text>
</g>
<!-- A&#45;&#45;C -->
<g id="edge2" class="edge">
<title>A&#45;&#45;C</title>
<path fill="none" stroke="black" d="M37.33,-50.88C51.15,-43.73 70.96,-33.48 84.77,-26.33"/>
</g>
<!-- D -->
<g id="node4" class="node">
<title>D</title>
<ellipse fill="#ff7321" fill-opacity="0.133333" stroke="#ff7321" stroke-opacity="0.133333" cx="93.22" cy="-197.11" rx="18" ry="18"/>
<text text-anchor="middle" x="93.22" y="-193.41" font-family="Times,serif" font-size="14.00">D</text>
</g>
<!-- A&#45;&#45;D -->
<g id="edge3" class="edge">
<title>A&#45;&#45;D</title>
<path fill="none" stroke="black" d="M29.61,-75.31C43.49,-101.88 71.03,-154.62 84.88,-181.12"/>
</g>
<!-- E -->
<g id="node5" class="node">
<title>E</title>
<ellipse fill="#3600ff" fill-opacity="0.133333" stroke="#3600ff" stroke-opacity="0.133333" cx="172.56" cy="-155.28" rx="18" ry="18"/>
<text text-anchor="middle" x="172.56" y="-151.58" font-family="Times,serif" font-size="14.00">E</text>
</g>
<!-- A&#45;&#45;E -->
<g id="edge4" class="edge">
<title>A&#45;&#45;E</title>
<path fill="none" stroke="black" d="M36.55,-68.96C65.56,-87.37 128.14,-127.08 157.18,-145.51"/>
</g>
<!-- F -->
<g id="node6" class="node">
<title>F</title>
<ellipse fill="#ffe819" fill-opacity="0.133333" stroke="#ffe819" stroke-opacity="0.133333" cx="18" cy="-148.64" rx="18" ry="18"/>
<text text-anchor="middle" x="18" y="-144.94" font-family="Times,serif" font-size="14.00">F</text>
</g>
<!-- A&#45;&#45;F -->
<g id="edge5" class="edge">
<title>A&#45;&#45;F</title>
<path fill="none" stroke="black" d="M20.56,-77.32C20,-92.83 19.2,-115.07 18.65,-130.57"/>
</g>
<!-- B&#45;&#45;C -->
<g id="edge6" class="edge">
<title>B&#45;&#45;C</title>
<path fill="none" stroke="black" d="M161.24,-56.16C148.11,-47.86 129.29,-35.96 116.16,-27.67"/>
</g>
<!-- B&#45;&#45;D -->
<g id="edge7" class="edge">
<title>B&#45;&#45;D</title>
<path fill="none" stroke="black" d="M166.83,-81.15C150.78,-106.45 118.9,-156.66 102.89,-181.89"/>
</g>
<!-- B&#45;&#45;E -->
<g id="edge8" class="edge">
<title>B&#45;&#45;E</title>
<path fill="none" stroke="black" d="M175.75,-83.94C175.06,-99.45 174.06,-121.69 173.37,-137.2"/>
</g>
<!-- B&#45;&#45;F -->
<g id="edge9" class="edge">
<title>B&#45;&#45;F</title>
<path fill="none" stroke="black" d="M160.48,-74.23C130.09,-90.1 64.54,-124.34 34.12,-140.23"/>
</g>
<!-- C&#45;&#45;D -->
<g id="edge10" class="edge">
<title>C&#45;&#45;D</title>
<path fill="none" stroke="black" d="M100.09,-36.16C98.63,-70.49 95.47,-144.54 94,-178.9"/>
</g>
<!-- C&#45;&#45;E -->
<g id="edge11" class="edge">
<title>C&#45;&#45;E</title>
<path fill="none" stroke="black" d="M109.23,-34.02C122.97,-60.33 150.18,-112.42 164.03,-138.94"/>
</g>
<!-- C&#45;&#45;F -->
<g id="edge12" class="edge">
<title>C&#45;&#45;F</title>
<path fill="none" stroke="black" d="M91.2,-33.24C75.32,-58.28 43.87,-107.86 27.86,-133.09"/>
</g>
<!-- D&#45;&#45;E -->
<g id="edge13" class="edge">
<title>D&#45;&#45;E</title>
<path fill="none" stroke="black" d="M109.28,-188.64C123.04,-181.39 142.77,-170.98 156.53,-163.73"/>
</g>
<!-- D&#45;&#45;F -->
<g id="edge14" class="edge">
<title>D&#45;&#45;F</title>
<path fill="none" stroke="black" d="M78,-187.3C64.95,-178.89 46.24,-166.84 33.2,-158.44"/>
</g>
<!-- E&#45;&#45;F -->
<g id="edge15" class="edge">
<title>E&#45;&#45;F</title>
<path fill="none" stroke="black" d="M154.53,-154.5C124.91,-153.23 66.26,-150.71 36.4,-149.43"/>
</g>
</g>
</svg>
