<?xml version="1.0" encoding="UTF-8" standalone="no"?>
<!DOCTYPE svg PUBLIC "-//W3C//DTD SVG 1.1//EN"
 "http://www.w3.org/Graphics/SVG/1.1/DTD/svg11.dtd">
<!-- Generated by graphviz version 2.44.0 (20200408.0750)
 -->
<!-- Title: G Pages: 1 -->
<svg width="292pt" height="430pt"
 viewBox="0.00 0.00 292.00 430.00" xmlns="http://www.w3.org/2000/svg" xmlns:xlink="http://www.w3.org/1999/xlink">
<g id="graph0" class="graph" transform="scale(1 1) rotate(0) translate(4 426)">
<title>G</title>
<polygon fill="transparent" stroke="transparent" points="-4,4 -4,-426 288,-426 288,4 -4,4"/>
<g id="clust1" class="cluster">
<title>cluster_0</title>
<path fill="#e6eaf2" stroke="#e6eaf2" d="M20,-65C20,-65 124,-65 124,-65 130,-65 136,-71 136,-77 136,-77 136,-347 136,-347 136,-353 130,-359 124,-359 124,-359 20,-359 20,-359 14,-359 8,-353 8,-347 8,-347 8,-77 8,-77 8,-71 14,-65 20,-65"/>
<text text-anchor="middle" x="72" y="-343.8" font-family="Times,serif" font-size="14.00">System A</text>
</g>
<g id="clust2" class="cluster">
<title>cluster_1</title>
<path fill="transparent" stroke="blue" stroke-dasharray="5,2" d="M156,-65C156,-65 264,-65 264,-65 270,-65 276,-71 276,-77 276,-77 276,-347 276,-347 276,-353 270,-359 264,-359 264,-359 156,-359 156,-359 150,-359 144,-353 144,-347 144,-347 144,-77 144,-77 144,-71 150,-65 156,-65"/>
<text text-anchor="middle" x="210" y="-343.8" font-family="Times,serif" font-size="14.00">System B</text>
</g>
<!-- a0 -->
<g id="node1" class="node">
<title>a0</title>
<ellipse fill="white" stroke="white" cx="101" cy="-310" rx="27" ry="18"/>
<text text-anchor="middle" x="101" y="-306.3" font-family="Times,serif" font-size="14.00">a0</text>
</g>
<!-- a1 -->
<g id="node2" class="node">
<title>a1</title>
<ellipse fill="white" stroke="white" cx="101" cy="-237" rx="27" ry="18"/>
<text text-anchor="middle" x="101" y="-233.3" font-family="Times,serif" font-size="14.00">a1</text>
</g>
<!-- a0&#45;&gt;a1 -->
<g id="edge1" class="edge">
<title>a0&#45;&gt;a1</title>
<path fill="none" stroke="black" d="M101,-291.81C101,-283.79 101,-274.05 101,-265.07"/>
<polygon fill="black" stroke="black" points="104.5,-265.03 101,-255.03 97.5,-265.03 104.5,-265.03"/>
</g>
<!-- a2 -->
<g id="node3" class="node">
<title>a2</title>
<ellipse fill="white" stroke="white" cx="43" cy="-164" rx="27" ry="18"/>
<text text-anchor="middle" x="43" y="-160.3" font-family="Times,serif" font-size="14.00">a2</text>
</g>
<!-- a1&#45;&gt;a2 -->
<g id="edge2" class="edge">
<title>a1&#45;&gt;a2</title>
<path fill="none" stroke="black" d="M88.7,-220.94C80.86,-211.34 70.54,-198.71 61.69,-187.89"/>
<polygon fill="black" stroke="black" points="64.32,-185.57 55.28,-180.04 58.9,-189.99 64.32,-185.57"/>
</g>
<!-- b3 -->
<g id="node8" class="node">
<title>b3</title>
<ellipse fill="#e6eaf2" stroke="#e6eaf2" cx="179" cy="-91" rx="27" ry="18"/>
<text text-anchor="middle" x="179" y="-87.3" font-family="Times,serif" font-size="14.00">b3</text>
</g>
<!-- a1&#45;&gt;b3 -->
<g id="edge9" class="edge">
<title>a1&#45;&gt;b3</title>
<path fill="none" stroke="black" d="M109.8,-219.76C123.31,-194.81 149.3,-146.82 165.3,-117.29"/>
<polygon fill="black" stroke="black" points="168.43,-118.86 170.12,-108.4 162.28,-115.53 168.43,-118.86"/>
</g>
<!-- a3 -->
<g id="node4" class="node">
<title>a3</title>
<ellipse fill="white" stroke="white" cx="101" cy="-91" rx="27" ry="18"/>
<text text-anchor="middle" x="101" y="-87.3" font-family="Times,serif" font-size="14.00">a3</text>
</g>
<!-- a2&#45;&gt;a3 -->
<g id="edge3" class="edge">
<title>a2&#45;&gt;a3</title>
<path fill="none" stroke="black" d="M55.3,-147.94C63.14,-138.34 73.46,-125.71 82.31,-114.89"/>
<polygon fill="black" stroke="black" points="85.1,-116.99 88.72,-107.04 79.68,-112.57 85.1,-116.99"/>
</g>
<!-- a3&#45;&gt;a1 -->
<g id="edge4" class="edge">
<title>a3&#45;&gt;a1</title>
<path fill="none" stroke="red" d="M101,-109.06C101,-133.62 101,-179.21 101,-208.55"/>
<polygon fill="red" stroke="red" points="97.5,-208.92 101,-218.92 104.5,-208.92 97.5,-208.92"/>
<text text-anchor="middle" x="112" y="-160.3" font-family="Times,serif" font-size="14.00" fill="red"> &#45;10</text>
</g>
<!-- end -->
<g id="node9" class="node">
<title>end</title>
<polygon fill="none" stroke="black" points="166,-36 116,-36 112,-32 112,0 162,0 166,-4 166,-36"/>
<polyline fill="none" stroke="black" points="162,-32 112,-32 "/>
<polyline fill="none" stroke="black" points="162,-32 162,0 "/>
<polyline fill="none" stroke="black" points="162,-32 166,-36 "/>
<text text-anchor="middle" x="139" y="-14.3" font-family="Times,serif" font-size="14.00">store</text>
</g>
<!-- a3&#45;&gt;end -->
<g id="edge10" class="edge">
<title>a3&#45;&gt;end</title>
<path fill="none" stroke="black" d="M109.62,-73.89C114.2,-65.33 119.94,-54.61 125.13,-44.91"/>
<polygon fill="black" stroke="black" points="128.25,-46.51 129.88,-36.04 122.08,-43.2 128.25,-46.51"/>
</g>
<!-- b0 -->
<g id="node5" class="node">
<title>b0</title>
<ellipse fill="#e6eaf2" stroke="#e6eaf2" cx="179" cy="-310" rx="27" ry="18"/>
<text text-anchor="middle" x="179" y="-306.3" font-family="Times,serif" font-size="14.00">b0</text>
</g>
<!-- b1 -->
<g id="node6" class="node">
<title>b1</title>
<ellipse fill="#e6eaf2" stroke="#e6eaf2" cx="179" cy="-237" rx="27" ry="18"/>
<text text-anchor="middle" x="179" y="-233.3" font-family="Times,serif" font-size="14.00">b1</text>
</g>
<!-- b0&#45;&gt;b1 -->
<g id="edge5" class="edge">
<title>b0&#45;&gt;b1</title>
<path fill="none" stroke="black" d="M179,-291.81C179,-283.79 179,-274.05 179,-265.07"/>
<polygon fill="black" stroke="black" points="182.5,-265.03 179,-255.03 175.5,-265.03 182.5,-265.03"/>
</g>
<!-- b2 -->
<g id="node7" class="node">
<title>b2</title>
<ellipse fill="#e6eaf2" stroke="#e6eaf2" cx="211" cy="-164" rx="27" ry="18"/>
<text text-anchor="middle" x="211" y="-160.3" font-family="Times,serif" font-size="14.00">b2</text>
</g>
<!-- b0&#45;&gt;b2 -->
<g id="edge6" class="edge">
<title>b0&#45;&gt;b2</title>
<path fill="none" stroke="green" d="M192.39,-294.2C200.68,-283.99 210.56,-269.67 215,-255 221.21,-234.48 219.62,-210.13 216.81,-191.93"/>
<polygon fill="green" stroke="green" points="220.24,-191.24 215.06,-182 213.35,-192.46 220.24,-191.24"/>
<text text-anchor="middle" x="232" y="-233.3" font-family="Times,serif" font-size="14.00" fill="green"> +12</text>
</g>
<!-- b1&#45;&gt;b2 -->
<g id="edge7" class="edge">
<title>b1&#45;&gt;b2</title>
<path fill="none" stroke="black" d="M186.42,-219.53C190.3,-210.93 195.13,-200.21 199.48,-190.56"/>
<polygon fill="black" stroke="black" points="202.7,-191.93 203.62,-181.38 196.32,-189.06 202.7,-191.93"/>
</g>
<!-- b2&#45;&gt;b3 -->
<g id="edge8" class="edge">
<title>b2&#45;&gt;b3</title>
<path fill="none" stroke="black" d="M203.58,-146.53C199.7,-137.93 194.87,-127.21 190.52,-117.56"/>
<polygon fill="black" stroke="black" points="193.68,-116.06 186.38,-108.38 187.3,-118.93 193.68,-116.06"/>
</g>
<!-- b3&#45;&gt;end -->
<g id="edge11" class="edge">
<title>b3&#45;&gt;end</title>
<path fill="none" stroke="black" d="M169.92,-73.89C165.1,-65.33 159.06,-54.61 153.6,-44.91"/>
<polygon fill="black" stroke="black" points="156.56,-43.03 148.6,-36.04 150.46,-46.47 156.56,-43.03"/>
</g>
<!-- start -->
<g id="node10" class="node">
<title>start</title>
<polygon fill="none" stroke="black" points="166,-422 163,-426 142,-426 139,-422 112,-422 112,-386 166,-386 166,-422"/>
<text text-anchor="middle" x="139" y="-400.3" font-family="Times,serif" font-size="14.00">load</text>
</g>
<!-- start&#45;&gt;a0 -->
<g id="edge12" class="edge">
<title>start&#45;&gt;a0</title>
<path fill="none" stroke="black" d="M131.85,-385.7C126.21,-372.03 118.24,-352.74 111.82,-337.19"/>
<polygon fill="black" stroke="black" points="114.91,-335.51 107.86,-327.61 108.44,-338.19 114.91,-335.51"/>
</g>
<!-- start&#45;&gt;b0 -->
<g id="edge13" class="edge">
<title>start&#45;&gt;b0</title>
<path fill="none" stroke="black" d="M146.52,-385.7C152.46,-372.03 160.85,-352.74 167.61,-337.19"/>
<polygon fill="black" stroke="black" points="171,-338.17 171.78,-327.61 164.58,-335.38 171,-338.17"/>
</g>
</g>
</svg>
